<svg
                    width="24"
                    height="24"
                    viewBox="0 0 40 40"
                    fill="none"
                    xmlns="http://www.w3.org/2000/svg"
                  >
                    <g clip-path="url(#clip0)">
                      <path
                        d="M14.54 29.999V16.5051H10.2528V29.999H14.54ZM12.397 14.6616C13.892 14.6616 14.8226 13.6254 14.8226 12.3305C14.7947 11.0064 13.8921 9.99902 12.4254 9.99902C10.9589 9.99902 9.99988 11.0065 9.99988 12.3305C9.99988 13.6255 10.9302 14.6616 12.369 14.6616H12.3969H12.397ZM16.913 29.999H21.2002V22.4633C21.2002 22.06 21.2281 21.6572 21.3413 21.3689C21.6512 20.5631 22.3566 19.7285 23.541 19.7285C25.0923 19.7285 25.713 20.966 25.713 22.78V29.9989H29.9999V22.2616C29.9999 18.1168 27.8848 16.1883 25.0641 16.1883C22.7513 16.1883 21.7358 17.5407 21.1717 18.4618H21.2003V16.5048H16.9131C16.9694 17.771 16.9131 29.9988 16.9131 29.9988L16.913 29.999Z"
                        fill="#000"
                      />
                    </g>
                    <defs>
                      <clipPath id="clip0">
                        <rect width="20" height="20" fill="white" transform="translate(10 10)" />
                      </clipPath>
                    </defs>
                  </svg>